<?xml version="1.0" encoding="UTF-8"?>
<!-- Generator: Adobe Illustrator 23.0.3, SVG Export Plug-In . SVG Version: 6.00 Build 0)  -->
<svg version="1.1" id="Calque_1" xmlns="http://www.w3.org/2000/svg" xmlns:xlink="http://www.w3.org/1999/xlink" x="0px" y="0px" viewBox="0 0 812 224" style="enable-background:new 0 0 812 224;" xml:space="preserve">
<style type="text/css">
	.st0{fill:#FF9E2A;}
	.st1{fill-rule:evenodd;clip-rule:evenodd;fill:#667379;}
</style>
<title>Original logo G FF9E2A@3x</title>
<desc>Created with Sketch.</desc>
<g id="Original-logo-G-FF9E2A">
	<g id="Clip-2">
	</g>
	<g>
		<path class="st0" d="M211.9,158.2c5.4-3.2,10.1-7.5,13.7-12.7h6.3c3.2,0,5.8-2.6,5.8-5.8c0-3.2-2.6-5.8-5.8-5.8h-0.5    c1.2-3.7,2-7.5,2.2-11.5h6.2c3.2,0,5.8-2.6,5.8-5.8c0-3.2-2.6-5.8-5.8-5.8h-6.4c-0.4-4-1.4-7.9-2.8-11.5h1.2    c3.2,0,5.8-2.6,5.8-5.8c0-3.2-2.6-5.8-5.8-5.8h-7.8C216,77.7,203.4,71,189.3,71h-9.9c-6.2,0-12.2,1.3-17.6,3.7h10.4    c24,0,43.7,19.7,43.7,43.7c0,22.2-16.7,40.6-38.2,43.4c-1.3,0.1-2.6,0.2-4,0.2h-45c7.3-4,13.6-9.7,18.3-16.5    c0.3,0.1,0.7,0.1,1,0.1h39.2c3.2,0,5.8-2.6,5.8-5.8c0-3.2-2.6-5.8-5.8-5.8h-34.1c1.4-3.7,2.4-7.5,3-11.5H201    c3.2,0,5.8-2.6,5.8-5.8c0-3.2-2.6-5.8-5.8-5.8h-44.4c-0.3-4-1.1-7.8-2.2-11.5h33c3.2,0,5.8-2.6,5.8-5.8c0-3.2-2.6-5.8-5.8-5.8    h-38.1c-9.3-15.7-26.5-26.3-46-26.3h-3.8c-17.8,0-33.7,8.9-43.4,22.4c8.7-10.1,21.7-16.5,36.1-16.5c20.6,0,38.2,13.1,44.8,31.4    h-24.2c-4.8-6.1-12.3-10-20.6-10C77.7,89,66,100.7,66,115.2c0,14.5,11.8,26.3,26.3,26.3c8.6,0,16.2-4.1,21-10.5h-25    c0-11.6,9.4-20.9,20.9-20.9h8.8h8.9h12.8c0.2,1.7,0.3,3.4,0.3,5.1c0,26.3-21.4,47.7-47.7,47.7c-13.9,0-26.4-6-35.2-15.5    c9.8,12.8,25.2,21.1,42.5,21.1h3.8c0.1,0,0.2,0,0.3,0c9.7,0,73.5,0,74.3,0c40.6,0,73.5-2.4,73.5-5.5    C251.5,161,235.4,159.1,211.9,158.2z"/>
	</g>
	<path id="Fill-1-Copy-8" class="st1" d="M509.5,61.3h-11.3v21.9h-9.8c-1.7,0-3,1.3-3,3v12.4h12.8v68.9h16.3c1.7,0,3-1.3,3-3V98.7   h14.1V86.3c0-1.7-1.3-3-3-3h-11.1V69.3C517.5,64.9,513.9,61.3,509.5,61.3z"/>
	<path id="Fill-2-Copy-10" class="st1" d="M538.3,167.6h16.3c1.7,0,3-1.3,3-3V69.3c0-4.4-3.6-8-8-8h-11.3V167.6z"/>
	<path id="Fill-3-Copy-8" class="st1" d="M572,167.6h16.3c1.7,0,3-1.3,3-3V91.3c0-4.4-3.6-8-8-8H572V167.6z"/>
	<path id="Fill-5-Copy-8" class="st1" d="M581.7,45.1c-3.6,0-6.5,1.1-8.8,3.4c-2.3,2.3-3.4,5.2-3.4,8.8c0,3.5,1.1,6.3,3.4,8.5   c2.3,2.2,5.2,3.3,8.8,3.3c3.5,0,6.3-1.1,8.6-3.3c2.3-2.2,3.4-5.1,3.4-8.5c0-3.6-1.1-6.5-3.4-8.8C588.1,46.2,585.2,45.1,581.7,45.1"/>
	<path id="Fill-7-Copy-8" class="st1" d="M622.5,118.7c0-6.5,1.8-11.6,5.3-15.3c3.5-3.7,8.4-5.5,14.5-5.5c5.6,0,9.8,1.7,12.6,5.1   c2.8,3.4,4.1,8.1,4.1,14.1v50.6h16.3c1.7,0,3-1.3,3-3v-50c0-10.1-2.7-18.1-8.2-24.2c-5.5-6.1-13.2-9.1-23.2-9.1   c-6.4,0-11.8,1.3-16.3,3.8c-4.5,2.5-7.7,5.7-9.7,9.3v-3.2c0-4.4-3.6-8-8-8h-9.9v84.4h16.3c1.7,0,3-1.3,3-3V118.7z"/>
	<path id="Combined-Shape-Copy-2" class="st1" d="M369.7,94.7c-6.4-9.4-17.1-15.5-29.3-15.5c-19.6,0-35.5,15.9-35.5,35.5   s15.9,35.5,35.5,35.5c14.4,0,26.8-8.6,32.4-20.9h-38.3c0-12.5,10.1-22.6,22.6-22.6h1.5v0h35.9c0.4,2.6,0.6,5.3,0.6,8.1   c0,30.2-24.5,54.7-54.7,54.7c-30.2,0-54.7-24.5-54.7-54.7S310.2,60,340.4,60c23.2,0,42.9,14.4,50.9,34.7H369.7z"/>
	<path id="Combined-Shape-Copy-3" class="st1" d="M745.1,111.2c-4.2-5.3-10.7-8.7-17.9-8.7c-12.6,0-22.8,10.2-22.8,22.8   s10.2,22.8,22.8,22.8c8.8,0,16.5-5,20.3-12.3h-23.7c0-8.3,6.6-15.1,14.8-15.3H769c0.2,1.6,0.3,3.2,0.3,4.8   c0,23.2-18.8,42.1-42.1,42.1c-23.2,0-42.1-18.8-42.1-42.1s18.8-42.1,42.1-42.1c18.3,0,33.9,11.7,39.7,28H745.1z"/>
	<path id="Fill-4-Copy-9" class="st1" d="M466.6,167.6h11.3c4.4,0,8-3.6,8-8v-33.6l-19.3,5.1V167.6z"/>
	<path id="Fill-12-Copy-8" class="st1" d="M443.8,149.2c-12.7,0-23.1-10.3-23.1-23.1c0-12.7,10.3-23.1,23.1-23.1   c12.7,0,23.1,10.3,23.1,23.1C466.9,138.8,456.6,149.2,443.8,149.2 M443.8,84c-23.2,0-42.1,18.8-42.1,42.1   c0,23.2,18.8,42.1,42.1,42.1s42.1-18.8,42.1-42.1C485.9,102.8,467.1,84,443.8,84"/>
</g>
</svg>